<svg width="80" height="80" viewBox="0 0 80 80" fill="none" xmlns="http://www.w3.org/2000/svg">
<path fill-rule="evenodd" clip-rule="evenodd" d="M33.7864 0.491826C55.6091 -2.94152 76.0751 11.9666 79.5082 33.7828C82.9412 55.6071 68.0344 76.0749 46.2199 79.5082C24.3971 82.9415 3.93116 68.0334 0.489825 46.2172C-2.93497 24.401 11.9637 3.92516 33.7864 0.491826Z" fill="#FFED00"/>
<path fill-rule="evenodd" clip-rule="evenodd" d="M12.433 66.9726C13.4647 66.1683 14.2853 65.242 15.2114 63.3003C16.5681 60.4321 17.3805 56.2155 17.8761 52.6731C18.4041 48.8949 18.9159 45.052 19.6308 41.4038C20.0695 39.1453 20.4188 37.5446 21.1175 35.4078C21.28 34.9042 21.1013 34.9122 21.3774 34.441C21.6537 33.9778 22.2386 32.2474 22.8398 31.0936C23.2379 30.3216 23.6034 29.5985 24.026 28.8836C26.5444 24.6261 28.5022 22.3676 32.0686 18.9388C32.2716 18.7439 32.3449 18.7032 32.4992 18.5002C32.9216 17.9396 33.4334 17.6389 34.0103 17.1839C36.155 15.5021 37.9017 14.0315 40.2251 12.309C41.6142 11.2772 43.1253 10.1316 44.4007 9.03475C46.4723 7.24729 48.1865 5.58985 49.8114 3.48553C49.99 3.25804 50.1443 3.03865 50.2825 2.82742C50.7212 2.94929 51.1518 3.07928 51.5906 3.21741C51.2492 4.00551 50.8107 4.86673 50.5831 5.29735C48.7227 8.82351 46.8786 11.001 44.4332 14.0477L38.9577 21.1244C38.6896 21.49 38.2103 22.1157 37.934 22.5381L36.0087 25.463C34.7657 27.5512 33.5959 29.4035 32.483 31.7191C31.4025 33.9778 30.5413 36.0822 29.7289 38.5278C25.602 50.9911 30.9068 64.6245 24.6514 70.7668C23.7822 71.62 22.5392 72.1968 21.0119 72.0425C19.5577 71.8962 18.7696 71.3438 17.7785 70.775C16.9824 70.32 16.1538 69.8894 15.2033 69.54C14.2446 68.7357 13.3185 67.8744 12.4411 66.9808L12.433 66.9726ZM19.3952 7.39355C18.0466 8.64477 16.8443 10.0097 15.7069 11.5941C8.25728 21.9613 11.3525 36.0333 13.3429 48.5455C14.1146 53.4123 14.0497 57.2879 12.5711 60.9685C12.1405 62.0489 11.3769 63.5033 10.6051 64.9739C6.16128 59.7497 3.04981 53.2742 1.90434 46.0025C0.247041 35.4809 3.01732 25.2843 8.81783 17.3058C11.6612 13.3978 15.2439 10.0178 19.387 7.39355H19.3952ZM36.6587 78.4286C39.7051 78.6885 42.8411 78.5911 46.0012 78.0954L46.2775 78.0467C46.0499 77.8923 45.8306 77.7216 45.6275 77.5268C45.0588 76.8524 44.4658 74.8943 44.2951 73.7893C43.8645 71.0675 43.7915 69.6376 44.1977 66.8263C44.3195 65.9733 44.9614 62.447 45.4082 62.0489C46.7243 61.4396 53.1179 64.8764 56.4567 64.3564C57.9191 64.129 58.7964 63.9178 59.4139 62.374C60.072 60.7327 59.3895 58.8803 60.6974 58.0679C61.4773 57.5804 63.8983 58.011 62.6066 54.5986C65.6693 54.1273 63.9634 51.3487 63.8414 50.6012C63.4027 47.8306 64.0526 48.9436 66.4085 47.7332C67.5054 47.1724 68.5778 46.5469 68.1552 45.0113L66.3598 41.989C65.1819 40.1365 64.9463 39.7221 64.6375 37.7722C64.2963 35.6273 66.368 33.3035 67.3916 28.1605C68.4558 22.8469 64.9868 13.8446 63.224 9.75786C62.2654 11.5859 60.5593 14.3971 60.3644 14.7384C57.0905 20.4095 54.1902 22.8957 50.6562 27.47C49.7301 28.6724 49.5838 28.5261 48.7065 29.7936L45.6519 33.7259L43.4908 37.1465C42.1586 39.3971 40.9563 41.9726 40.0626 44.5482C39.1771 47.0913 38.454 50.2762 38.1209 53.0224L37.5847 56.8573C37.2679 54.826 37.1867 50.4305 37.2599 48.3181C37.2843 47.5056 37.341 44.9301 37.536 44.3695L38.2267 40.7133C39.3803 35.7898 41.2892 31.9223 43.4908 27.9168C46.3342 22.7413 49.0071 18.4758 51.6067 13.024C52.1186 11.9597 52.5328 10.9441 52.9877 9.87161C53.4915 8.66102 54.3038 6.1667 54.7182 4.35488C53.8409 3.98926 52.9472 3.65614 52.0455 3.36365C51.6798 5.82546 50.1282 9.38411 49.2101 11.2772C48.869 11.9759 48.4789 12.6178 48.1621 13.349L46.0661 17.4845C45.8793 17.8583 45.7413 18.1914 45.5625 18.5245C45.3595 18.8901 45.2295 19.1582 45.0588 19.4914C43.3284 22.9282 40.6069 28.7129 39.1689 32.1741C37.1867 36.9597 36.4718 41.5827 36.2686 46.945C36.1712 49.61 36.5287 55.9392 36.9024 58.6122C37.3004 61.4802 37.6903 67.647 37.6416 70.4663C37.5929 73.2044 37.4142 75.8692 36.6587 78.4447V78.4286ZM33.864 0.479354C44.742 -1.2106 55.2869 1.65745 63.5408 7.66979C72.1847 13.9584 77.8635 23.3019 79.5207 33.856C81.2105 44.7432 78.3427 55.281 72.331 63.544C66.3029 71.8149 57.1228 77.7949 46.2124 79.5092C35.3019 81.2235 24.7326 78.3555 16.4625 72.335C8.19228 66.3144 2.21305 57.1254 0.490761 46.2137C-1.2234 35.3022 1.64436 24.7319 7.66421 16.4608C13.6922 8.18977 22.8724 2.20993 33.7827 0.495602H33.8558V0.487477L33.864 0.479354Z" fill="#005CA9"/>
<mask id="mask0_686_1260" style="mask-type:luminance" maskUnits="userSpaceOnUse" x="-1" y="0" width="81" height="80">
<path d="M12.4301 66.9726C13.4618 66.1683 14.2823 65.242 15.2084 63.3003C16.5652 60.4321 17.3775 56.2155 17.8732 52.6731C18.4012 48.8949 18.913 45.052 19.6278 41.4038C20.0666 39.1453 20.4159 37.5446 21.1146 35.4078C21.2771 34.9042 21.0984 34.9122 21.3745 34.441C21.6508 33.9778 22.2356 32.2474 22.8369 31.0936C23.2349 30.3216 23.6004 29.5985 24.023 28.8836C26.5414 24.6261 28.4993 22.3676 32.0657 18.9388C32.2687 18.7439 32.342 18.7032 32.4963 18.5002C32.9187 17.9396 33.4305 17.6389 34.0074 17.1839C36.1521 15.5021 37.8988 14.0315 40.2221 12.309C41.6113 11.2772 43.1224 10.1316 44.3978 9.03475C46.4694 7.24729 48.1836 5.58985 49.8084 3.48553C49.9871 3.25804 50.1414 3.03865 50.2795 2.82742C50.7183 2.94929 51.1489 3.07928 51.5876 3.21741C51.2463 4.00551 50.8077 4.86673 50.5802 5.29735C48.7197 8.82351 46.8756 11.001 44.4303 14.0477L38.9548 21.1244C38.6867 21.49 38.2074 22.1157 37.9311 22.5381L36.0058 25.463C34.7628 27.5512 33.593 29.4035 32.4801 31.7191C31.3996 33.9778 30.5384 36.0822 29.726 38.5278C25.599 50.9911 30.9039 64.6245 24.6484 70.7668C23.7793 71.62 22.5363 72.1968 21.009 72.0425C19.5548 71.8962 18.7667 71.3438 17.7756 70.775C16.9795 70.32 16.1508 69.8894 15.2003 69.54C14.2417 68.7357 13.3156 67.8744 12.4382 66.9808L12.4301 66.9726ZM19.3923 7.39355C18.0436 8.64477 16.8414 10.0097 15.704 11.5941C8.25435 21.9613 11.3496 36.0333 13.3399 48.5455C14.1117 53.4123 14.0467 57.2879 12.5682 60.9685C12.1376 62.0489 11.3739 63.5033 10.6022 64.9739C6.15835 59.7497 3.04688 53.2742 1.90141 46.0025C0.244112 35.4809 3.01439 25.2843 8.8149 17.3058C11.6583 13.3978 15.2409 10.0178 19.3841 7.39355H19.3923ZM36.6557 78.4286C39.7021 78.6885 42.8381 78.5911 45.9983 78.0954L46.2746 78.0467C46.047 77.8923 45.8276 77.7216 45.6246 77.5268C45.0559 76.8524 44.4628 74.8943 44.2922 73.7893C43.8616 71.0675 43.7885 69.6376 44.1948 66.8263C44.3165 65.9733 44.9585 62.447 45.4052 62.0489C46.7213 61.4396 53.1149 64.8764 56.4538 64.3564C57.9162 64.129 58.7935 63.9178 59.4109 62.374C60.0691 60.7327 59.3866 58.8803 60.6945 58.0679C61.4744 57.5804 63.8954 58.011 62.6036 54.5986C65.6664 54.1273 63.9604 51.3487 63.8385 50.6012C63.3997 47.8306 64.0497 48.9436 66.4056 47.7332C67.5025 47.1724 68.5748 46.5469 68.1523 45.0113L66.3569 41.989C65.1789 40.1365 64.9434 39.7221 64.6346 37.7722C64.2934 35.6273 66.3651 33.3035 67.3887 28.1605C68.4529 22.8469 64.9839 13.8446 63.2211 9.75786C62.2625 11.5859 60.5563 14.3971 60.3615 14.7384C57.0875 20.4095 54.1873 22.8957 50.6532 27.47C49.7272 28.6724 49.5809 28.5261 48.7036 29.7936L45.649 33.7259L43.4879 37.1465C42.1556 39.3971 40.9533 41.9726 40.0596 44.5482C39.1741 47.0913 38.4511 50.2762 38.118 53.0224L37.5818 56.8573C37.265 54.826 37.1837 50.4305 37.257 48.3181C37.2813 47.5056 37.338 44.9301 37.5331 44.3695L38.2237 40.7133C39.3773 35.7898 41.2863 31.9223 43.4879 27.9168C46.3313 22.7413 49.0042 18.4758 51.6038 13.024C52.1156 11.9597 52.5299 10.9441 52.9848 9.87161C53.4886 8.66102 54.3009 6.1667 54.7153 4.35488C53.838 3.98926 52.9443 3.65614 52.0426 3.36365C51.6769 5.82546 50.1252 9.38411 49.2072 11.2772C48.866 11.9759 48.476 12.6178 48.1592 13.349L46.0632 17.4845C45.8764 17.8583 45.7384 18.1914 45.5596 18.5245C45.3565 18.8901 45.2266 19.1582 45.0559 19.4914C43.3254 22.9282 40.604 28.7129 39.166 32.1741C37.1837 36.9597 36.4689 41.5827 36.2657 46.945C36.1683 49.61 36.5258 55.9392 36.8995 58.6122C37.2975 61.4802 37.6874 67.647 37.6387 70.4663C37.59 73.2044 37.4113 75.8692 36.6557 78.4447V78.4286ZM33.8611 0.479354C44.7391 -1.2106 55.284 1.65745 63.5379 7.66979C72.1818 13.9584 77.8605 23.3019 79.5178 33.856C81.2075 44.7432 78.3398 55.281 72.3281 63.544C66.3 71.8149 57.1199 77.7949 46.2095 79.5092C35.2989 81.2235 24.7297 78.3555 16.4595 72.335C8.18935 66.3144 2.21012 57.1254 0.487831 46.2137C-1.22633 35.3022 1.64143 24.7319 7.66128 16.4608C13.6893 8.18977 22.8694 2.20993 33.7798 0.495602H33.8529V0.487477L33.8611 0.479354Z" fill="white"/>
</mask>
<g mask="url(#mask0_686_1260)">
<path fill-rule="evenodd" clip-rule="evenodd" d="M48.9585 48.9375C50.9583 48.9375 52.582 50.7136 52.582 52.9097C52.582 55.1055 50.9583 56.8816 48.9585 56.8816C46.9585 56.8816 45.335 55.1055 45.335 52.9097C45.335 50.7136 46.9585 48.9375 48.9585 48.9375Z" fill="#005CA9"/>
</g>
</svg>
