<svg aria-hidden="true" style="position: absolute; width: 0; height: 0; overflow: hidden;" version="1.1" xmlns="http://www.w3.org/2000/svg" xmlns:xlink="http://www.w3.org/1999/xlink">
<defs>
<symbol id="chat2" viewBox="0 0 32 32">
<path d="M9.6 9.6c0-0.212 0.084-0.416 0.234-0.566s0.354-0.234 0.566-0.234h4.8c0.212 0 0.416 0.084 0.566 0.234s0.234 0.354 0.234 0.566c0 0.212-0.084 0.416-0.234 0.566s-0.354 0.234-0.566 0.234h-4.8c-0.212 0-0.416-0.084-0.566-0.234s-0.234-0.354-0.234-0.566zM10.4 12c-0.212 0-0.416 0.084-0.566 0.234s-0.234 0.354-0.234 0.566c0 0.212 0.084 0.416 0.234 0.566s0.354 0.234 0.566 0.234h3.2c0.212 0 0.416-0.084 0.566-0.234s0.234-0.354 0.234-0.566c0-0.212-0.084-0.416-0.234-0.566s-0.354-0.234-0.566-0.234h-3.2zM12.8 1.6c-1.665-0.001-3.303 0.432-4.75 1.256s-2.656 2.010-3.507 3.442c-0.851 1.432-1.314 3.061-1.345 4.726s0.372 3.31 1.17 4.772l-1.136 3.984c-0.040 0.14-0.041 0.288-0.003 0.428s0.114 0.268 0.219 0.369c0.105 0.101 0.235 0.171 0.377 0.203s0.29 0.025 0.428-0.021l3.741-1.246c1.275 0.737 2.702 1.17 4.172 1.267s2.941-0.146 4.302-0.709c1.361-0.563 2.574-1.432 3.545-2.538s1.675-2.422 2.057-3.844c0.382-1.422 0.431-2.913 0.144-4.358s-0.902-2.803-1.798-3.972c-0.896-1.169-2.049-2.115-3.369-2.767s-2.773-0.991-4.246-0.991zM4.8 11.2c0-1.775 0.591-3.5 1.679-4.902s2.611-2.403 4.331-2.845 3.536-0.299 5.166 0.405c1.629 0.705 2.978 1.931 3.834 3.486s1.17 3.351 0.893 5.104-1.129 3.365-2.422 4.581c-1.293 1.216-2.954 1.967-4.721 2.136s-3.54-0.255-5.040-1.205c-0.1-0.064-0.214-0.104-0.331-0.118s-0.238-0.002-0.35 0.035l-2.653 0.885 0.816-2.85c0.030-0.105 0.038-0.215 0.023-0.323s-0.051-0.212-0.107-0.306c-0.735-1.235-1.121-2.646-1.118-4.083zM19.642 23.915l-3.843-1.92c0.704-0.197 1.381-0.459 2.021-0.781l2.181 1.091 7.2-3.6v-1.106c0-0.424-0.169-0.831-0.469-1.131s-0.707-0.469-1.131-0.469h-2.678c0.245-0.512 0.45-1.048 0.614-1.6h2.064c0.849 0 1.663 0.337 2.263 0.937s0.937 1.414 0.937 2.263v8c0 0.849-0.337 1.663-0.937 2.263s-1.414 0.937-2.263 0.937h-11.2c-0.849 0-1.663-0.337-2.263-0.937s-0.937-1.414-0.937-2.263v-3.312c0.523 0.074 1.056 0.112 1.6 0.112v3.2c0 0.424 0.169 0.831 0.469 1.131s0.707 0.469 1.131 0.469h11.2c0.424 0 0.831-0.169 1.131-0.469s0.469-0.707 0.469-1.131v-5.106l-6.842 3.421c-0.111 0.056-0.234 0.085-0.358 0.085s-0.247-0.029-0.358-0.085z"></path>
</symbol>
<symbol id="clock" viewBox="0 0 33 32">
<path d="M16.667 30c-2.769 0-5.476-0.821-7.778-2.359s-4.097-3.725-5.156-6.283-1.337-5.373-0.797-8.089c0.54-2.716 1.874-5.21 3.832-7.168s4.452-3.291 7.168-3.832c2.716-0.54 5.531-0.263 8.089 0.797s4.745 2.854 6.283 5.156c1.538 2.302 2.359 5.009 2.359 7.778 0 3.713-1.475 7.274-4.101 9.899s-6.186 4.101-9.899 4.101zM16.667 4c-2.373 0-4.693 0.704-6.667 2.022s-3.511 3.193-4.42 5.385c-0.908 2.193-1.146 4.606-0.683 6.933s1.606 4.466 3.284 6.144c1.678 1.678 3.816 2.821 6.144 3.284s4.741 0.225 6.933-0.683c2.193-0.908 4.067-2.446 5.385-4.42s2.022-4.293 2.022-6.667c0-3.183-1.264-6.235-3.515-8.485s-5.303-3.515-8.485-3.515z"></path>
<path d="M21.257 22l-5.59-5.59v-9.41h2v8.58l5 5.010-1.41 1.41z"></path>
</symbol>
<symbol id="close" viewBox="0 0 32 32">
<path d="M8.533 25.333l-1.867-1.867 7.467-7.467-7.467-7.467 1.867-1.867 7.467 7.467 7.467-7.467 1.867 1.867-7.467 7.467 7.467 7.467-1.867 1.867-7.467-7.467-7.467 7.467z"></path>
</symbol>
<symbol id="email" viewBox="0 0 32 32">
<path d="M29.333 8c0-1.467-1.2-2.667-2.667-2.667h-21.333c-1.467 0-2.667 1.2-2.667 2.667v16c0 1.467 1.2 2.667 2.667 2.667h21.333c1.467 0 2.667-1.2 2.667-2.667v-16zM26.667 8l-10.667 6.667-10.667-6.667h21.333zM26.667 24h-21.333v-13.333l10.667 6.667 10.667-6.667v13.333z"></path>
</symbol>
<symbol id="email-edit" viewBox="0 0 32 32">
<path d="M25.427 18.507l-8.093 8.080v2.747h2.747l8.080-8.093zM30.267 18.107l-1.707-1.707c-0.064-0.071-0.142-0.128-0.229-0.167s-0.182-0.059-0.277-0.060c-0.2 0.013-0.387 0.080-0.52 0.227l-1.333 1.333 2.733 2.667 1.333-1.333c0.253-0.267 0.253-0.693 0-0.96zM14.667 24h-9.333v-13.333l10.667 6.667 10.667-6.667v2.667h2.667v-5.333c0-1.467-1.2-2.667-2.667-2.667h-21.333c-1.467 0-2.667 1.2-2.667 2.667v16c0 1.467 1.2 2.667 2.667 2.667h9.333v-2.667zM26.667 8l-10.667 6.667-10.667-6.667h21.333z"></path>
</symbol>
<symbol id="facebook" viewBox="0 0 32 32">
<path d="M29.333 16c0-7.36-5.973-13.333-13.333-13.333s-13.333 5.973-13.333 13.333c0 6.453 4.587 11.827 10.667 13.067v-9.067h-2.667v-4h2.667v-3.333c0-2.573 2.093-4.667 4.667-4.667h3.333v4h-2.667c-0.733 0-1.333 0.6-1.333 1.333v2.667h4v4h-4v9.267c6.733-0.667 12-6.347 12-13.267z"></path>
</symbol>
<symbol id="logo" viewBox="0 0 32 32">
<path fill="#ffed00" style="fill: var(--color1, #ffed00)" d="M13.559 0.483c8.572-1.349 16.612 4.507 17.96 13.076 1.348 8.572-4.507 16.612-13.076 17.96-8.572 1.348-16.612-4.507-17.964-13.076-1.345-8.569 4.507-16.612 13.080-17.96z"></path>
<path fill="#005ca9" style="fill: var(--color2, #005ca9)" d="M4.973 26.788c0.413-0.322 0.741-0.692 1.111-1.469 0.543-1.147 0.868-2.834 1.066-4.25 0.211-1.511 0.416-3.048 0.702-4.507 0.175-0.903 0.315-1.544 0.595-2.398 0.065-0.201-0.007-0.198 0.104-0.387 0.111-0.185 0.344-0.877 0.585-1.339 0.159-0.309 0.305-0.598 0.474-0.884 1.007-1.703 1.79-2.606 3.217-3.977 0.081-0.078 0.11-0.094 0.172-0.175 0.169-0.224 0.374-0.344 0.604-0.526 0.858-0.673 1.557-1.261 2.486-1.95 0.556-0.413 1.16-0.871 1.67-1.31 0.829-0.715 1.514-1.378 2.164-2.219 0.072-0.091 0.133-0.179 0.188-0.263 0.175 0.049 0.348 0.101 0.523 0.156-0.136 0.315-0.312 0.66-0.403 0.832-0.744 1.41-1.482 2.281-2.46 3.5l-2.19 2.83c-0.107 0.146-0.299 0.396-0.409 0.565l-0.77 1.17c-0.497 0.835-0.965 1.576-1.41 2.502-0.432 0.903-0.777 1.745-1.102 2.723-1.651 4.985 0.471 10.438-2.031 12.894-0.348 0.341-0.845 0.572-1.456 0.51-0.582-0.058-0.897-0.279-1.293-0.507-0.318-0.182-0.65-0.354-1.030-0.494-0.383-0.322-0.754-0.666-1.105-1.024l-0.003-0.003zM7.758 2.959c-0.539 0.5-1.020 1.046-1.475 1.68-2.98 4.146-1.742 9.775-0.946 14.779 0.309 1.947 0.283 3.497-0.309 4.969-0.172 0.432-0.478 1.014-0.786 1.602-1.778-2.090-3.022-4.679-3.48-7.588-0.663-4.208 0.445-8.286 2.765-11.478 1.137-1.563 2.57-2.915 4.228-3.965h0.003zM14.663 31.37c1.219 0.104 2.473 0.065 3.737-0.133l0.11-0.020c-0.091-0.062-0.179-0.13-0.26-0.208-0.227-0.27-0.465-1.053-0.533-1.495-0.172-1.089-0.201-1.661-0.039-2.785 0.049-0.341 0.305-1.752 0.484-1.911 0.526-0.244 3.084 1.131 4.419 0.923 0.585-0.091 0.936-0.175 1.183-0.793 0.263-0.656-0.010-1.397 0.513-1.722 0.312-0.195 1.28-0.023 0.764-1.388 1.225-0.188 0.543-1.3 0.494-1.599-0.175-1.108 0.084-0.663 1.027-1.147 0.439-0.224 0.868-0.474 0.699-1.089l-0.718-1.209c-0.471-0.741-0.565-0.907-0.689-1.687-0.136-0.858 0.692-1.787 1.102-3.844 0.426-2.125-0.962-5.726-1.667-7.36-0.383 0.731-1.066 1.856-1.144 1.992-1.31 2.268-2.47 3.263-3.883 5.092-0.37 0.481-0.429 0.422-0.78 0.929l-1.222 1.573-0.864 1.368c-0.533 0.9-1.014 1.93-1.371 2.96-0.354 1.017-0.643 2.291-0.777 3.389l-0.214 1.534c-0.127-0.812-0.159-2.57-0.13-3.415 0.010-0.325 0.032-1.355 0.111-1.579l0.276-1.462c0.461-1.969 1.225-3.516 2.106-5.118 1.137-2.070 2.207-3.776 3.246-5.956 0.205-0.426 0.37-0.832 0.552-1.261 0.201-0.484 0.526-1.482 0.692-2.206-0.351-0.146-0.708-0.279-1.069-0.396-0.146 0.985-0.767 2.408-1.134 3.165-0.136 0.279-0.292 0.536-0.419 0.829l-0.838 1.654c-0.075 0.149-0.13 0.283-0.201 0.416-0.081 0.146-0.133 0.253-0.201 0.387-0.692 1.375-1.781 3.688-2.356 5.073-0.793 1.914-1.079 3.763-1.16 5.908-0.039 1.066 0.104 3.597 0.253 4.666 0.159 1.147 0.315 3.614 0.296 4.741-0.020 1.095-0.091 2.161-0.393 3.191v-0.006zM13.546 0.193c4.351-0.676 8.569 0.471 11.871 2.876 3.458 2.515 5.729 6.252 6.392 10.473 0.676 4.354-0.471 8.569-2.876 11.874-2.411 3.308-6.083 5.7-10.447 6.385s-8.592-0.461-11.9-2.869c-3.308-2.408-5.7-6.083-6.389-10.447-0.686-4.364 0.461-8.592 2.869-11.9 2.411-3.308 6.083-5.7 10.447-6.385h0.029v-0.003l0.003-0.003z"></path>
<path fill="#005ca9" style="fill: var(--color2, #005ca9)" d="M14.796 14.771c0.604 0 1.095 0.536 1.095 1.199s-0.491 1.199-1.095 1.199c-0.604 0-1.095-0.536-1.095-1.199s0.491-1.199 1.095-1.199z"></path>
</symbol>
<symbol id="menu" viewBox="0 0 24 24">
<path d="M4 6H20M4 12H20M4 18H20" stroke="#1F1F1F" stroke-width="2" stroke-linecap="round" stroke-linejoin="round"/>
</symbol>
<symbol id="telegram" viewBox="0 0 32 32">
<path d="M16 2.667c-7.36 0-13.333 5.973-13.333 13.333s5.973 13.333 13.333 13.333c7.36 0 13.333-5.973 13.333-13.333s-5.973-13.333-13.333-13.333zM22.186 11.734c-0.2 2.107-1.067 7.227-1.507 9.587-0.187 1-0.56 1.333-0.907 1.373-0.773 0.067-1.36-0.507-2.107-1-1.173-0.773-1.84-1.253-2.973-2-1.32-0.867-0.467-1.347 0.293-2.12 0.2-0.2 3.613-3.307 3.68-3.587 0.009-0.042 0.008-0.086-0.004-0.128s-0.033-0.080-0.063-0.112c-0.080-0.067-0.187-0.040-0.28-0.027-0.12 0.027-1.987 1.267-5.627 3.72-0.533 0.36-1.013 0.547-1.44 0.533-0.48-0.013-1.387-0.267-2.067-0.493-0.84-0.267-1.493-0.413-1.44-0.88 0.027-0.24 0.36-0.48 0.987-0.733 3.893-1.693 6.48-2.813 7.773-3.347 3.707-1.547 4.467-1.813 4.973-1.813 0.107 0 0.36 0.027 0.52 0.16 0.133 0.107 0.173 0.253 0.187 0.36-0.013 0.080 0.013 0.32 0 0.507z"></path>
</symbol>
<symbol id="vector" viewBox="0 0 30 32">
<path fill="#ffed00" style="fill: var(--color1, #ffed00)" d="M15.352 0.248c3.51 0.77 4.463 4.886 7.011 7.312 2.551 2.428 6.807 3.349 7.689 6.68 1.026 3.876-0.363 8.046-2.961 11.185-2.922 3.53-7.021 6.543-11.739 6.575-4.74 0.032-8.905-2.921-11.905-6.417-2.711-3.16-3.462-7.263-3.333-11.343 0.124-3.931 1.057-7.95 4.029-10.679 2.928-2.689 7.246-4.183 11.209-3.313z"></path>
</symbol>
</defs>
</svg>
