<svg aria-hidden="true" style="position: absolute; width: 0; height: 0; overflow: hidden;" version="1.1" xmlns="http://www.w3.org/2000/svg" xmlns:xlink="http://www.w3.org/1999/xlink">
<defs>
<symbol id="chat2" viewBox="0 0 32 32">
<path d="M9.6 9.6c0-0.212 0.084-0.416 0.234-0.566s0.354-0.234 0.566-0.234h4.8c0.212 0 0.416 0.084 0.566 0.234s0.234 0.354 0.234 0.566c0 0.212-0.084 0.416-0.234 0.566s-0.354 0.234-0.566 0.234h-4.8c-0.212 0-0.416-0.084-0.566-0.234s-0.234-0.354-0.234-0.566zM10.4 12c-0.212 0-0.416 0.084-0.566 0.234s-0.234 0.354-0.234 0.566c0 0.212 0.084 0.416 0.234 0.566s0.354 0.234 0.566 0.234h3.2c0.212 0 0.416-0.084 0.566-0.234s0.234-0.354 0.234-0.566c0-0.212-0.084-0.416-0.234-0.566s-0.354-0.234-0.566-0.234h-3.2zM12.8 1.6c-1.665-0.001-3.303 0.432-4.75 1.256s-2.656 2.010-3.507 3.442c-0.851 1.432-1.314 3.061-1.345 4.726s0.372 3.31 1.17 4.772l-1.136 3.984c-0.040 0.14-0.041 0.288-0.003 0.428s0.114 0.268 0.219 0.369c0.105 0.101 0.235 0.171 0.377 0.203s0.29 0.025 0.428-0.021l3.741-1.246c1.275 0.737 2.702 1.17 4.172 1.267s2.941-0.146 4.302-0.709c1.361-0.563 2.574-1.432 3.545-2.538s1.675-2.422 2.057-3.844c0.382-1.422 0.431-2.913 0.144-4.358s-0.902-2.803-1.798-3.972c-0.896-1.169-2.049-2.115-3.369-2.767s-2.773-0.991-4.246-0.991zM4.8 11.2c0-1.775 0.591-3.5 1.679-4.902s2.611-2.403 4.331-2.845 3.536-0.299 5.166 0.405c1.629 0.705 2.978 1.931 3.834 3.486s1.17 3.351 0.893 5.104-1.129 3.365-2.422 4.581c-1.293 1.216-2.954 1.967-4.721 2.136s-3.54-0.255-5.040-1.205c-0.1-0.064-0.214-0.104-0.331-0.118s-0.238-0.002-0.35 0.035l-2.653 0.885 0.816-2.85c0.030-0.105 0.038-0.215 0.023-0.323s-0.051-0.212-0.107-0.306c-0.735-1.235-1.121-2.646-1.118-4.083zM19.642 23.915l-3.843-1.92c0.704-0.197 1.381-0.459 2.021-0.781l2.181 1.091 7.2-3.6v-1.106c0-0.424-0.169-0.831-0.469-1.131s-0.707-0.469-1.131-0.469h-2.678c0.245-0.512 0.45-1.048 0.614-1.6h2.064c0.849 0 1.663 0.337 2.263 0.937s0.937 1.414 0.937 2.263v8c0 0.849-0.337 1.663-0.937 2.263s-1.414 0.937-2.263 0.937h-11.2c-0.849 0-1.663-0.337-2.263-0.937s-0.937-1.414-0.937-2.263v-3.312c0.523 0.074 1.056 0.112 1.6 0.112v3.2c0 0.424 0.169 0.831 0.469 1.131s0.707 0.469 1.131 0.469h11.2c0.424 0 0.831-0.169 1.131-0.469s0.469-0.707 0.469-1.131v-5.106l-6.842 3.421c-0.111 0.056-0.234 0.085-0.358 0.085s-0.247-0.029-0.358-0.085z"></path>
</symbol>
<symbol id="clock" viewBox="0 0 33 32">
<path d="M16.667 30c-2.769 0-5.476-0.821-7.778-2.359s-4.097-3.725-5.156-6.283-1.337-5.373-0.797-8.089c0.54-2.716 1.874-5.21 3.832-7.168s4.452-3.291 7.168-3.832c2.716-0.54 5.531-0.263 8.089 0.797s4.745 2.854 6.283 5.156c1.538 2.302 2.359 5.009 2.359 7.778 0 3.713-1.475 7.274-4.101 9.899s-6.186 4.101-9.899 4.101zM16.667 4c-2.373 0-4.693 0.704-6.667 2.022s-3.511 3.193-4.42 5.385c-0.908 2.193-1.146 4.606-0.683 6.933s1.606 4.466 3.284 6.144c1.678 1.678 3.816 2.821 6.144 3.284s4.741 0.225 6.933-0.683c2.193-0.908 4.067-2.446 5.385-4.42s2.022-4.293 2.022-6.667c0-3.183-1.264-6.235-3.515-8.485s-5.303-3.515-8.485-3.515z"></path>
<path d="M21.257 22l-5.59-5.59v-9.41h2v8.58l5 5.010-1.41 1.41z"></path>
</symbol>
<symbol id="close" viewBox="0 0 32 32">
<path d="M8.533 25.333l-1.867-1.867 7.467-7.467-7.467-7.467 1.867-1.867 7.467 7.467 7.467-7.467 1.867 1.867-7.467 7.467 7.467 7.467-1.867 1.867-7.467-7.467-7.467 7.467z"></path>
</symbol>
<symbol id="email" viewBox="0 0 32 32">
<path d="M29.333 8c0-1.467-1.2-2.667-2.667-2.667h-21.333c-1.467 0-2.667 1.2-2.667 2.667v16c0 1.467 1.2 2.667 2.667 2.667h21.333c1.467 0 2.667-1.2 2.667-2.667v-16zM26.667 8l-10.667 6.667-10.667-6.667h21.333zM26.667 24h-21.333v-13.333l10.667 6.667 10.667-6.667v13.333z"></path>
</symbol>
<symbol id="email-edit" viewBox="0 0 32 32">
<path d="M25.427 18.507l-8.093 8.080v2.747h2.747l8.080-8.093zM30.267 18.107l-1.707-1.707c-0.064-0.071-0.142-0.128-0.229-0.167s-0.182-0.059-0.277-0.060c-0.2 0.013-0.387 0.080-0.52 0.227l-1.333 1.333 2.733 2.667 1.333-1.333c0.253-0.267 0.253-0.693 0-0.96zM14.667 24h-9.333v-13.333l10.667 6.667 10.667-6.667v2.667h2.667v-5.333c0-1.467-1.2-2.667-2.667-2.667h-21.333c-1.467 0-2.667 1.2-2.667 2.667v16c0 1.467 1.2 2.667 2.667 2.667h9.333v-2.667zM26.667 8l-10.667 6.667-10.667-6.667h21.333z"></path>
</symbol>
<symbol id="facebook" viewBox="0 0 32 32">
<path d="M29.333 16c0-7.36-5.973-13.333-13.333-13.333s-13.333 5.973-13.333 13.333c0 6.453 4.587 11.827 10.667 13.067v-9.067h-2.667v-4h2.667v-3.333c0-2.573 2.093-4.667 4.667-4.667h3.333v4h-2.667c-0.733 0-1.333 0.6-1.333 1.333v2.667h4v4h-4v9.267c6.733-0.667 12-6.347 12-13.267z"></path>
</symbol>
<symbol id="logo" viewBox="0 0 32 32">
<path fill="#ffed00" style="fill: var(--color1, #ffed00)" d="M13.559 0.483c8.572-1.349 16.612 4.507 17.96 13.076 1.348 8.572-4.507 16.612-13.076 17.96-8.572 1.348-16.612-4.507-17.964-13.076-1.345-8.569 4.507-16.612 13.080-17.96z"></path>
<path fill="#005ca9" style="fill: var(--color2, #005ca9)" d="M4.973 26.788c0.413-0.322 0.741-0.692 1.111-1.469 0.543-1.147 0.868-2.834 1.066-4.25 0.211-1.511 0.416-3.048 0.702-4.507 0.175-0.903 0.315-1.544 0.595-2.398 0.065-0.201-0.007-0.198 0.104-0.387 0.111-0.185 0.344-0.877 0.585-1.339 0.159-0.309 0.305-0.598 0.474-0.884 1.007-1.703 1.79-2.606 3.217-3.977 0.081-0.078 0.11-0.094 0.172-0.175 0.169-0.224 0.374-0.344 0.604-0.526 0.858-0.673 1.557-1.261 2.486-1.95 0.556-0.413 1.16-0.871 1.67-1.31 0.829-0.715 1.514-1.378 2.164-2.219 0.072-0.091 0.133-0.179 0.188-0.263 0.175 0.049 0.348 0.101 0.523 0.156-0.136 0.315-0.312 0.66-0.403 0.832-0.744 1.41-1.482 2.281-2.46 3.5l-2.19 2.83c-0.107 0.146-0.299 0.396-0.409 0.565l-0.77 1.17c-0.497 0.835-0.965 1.576-1.41 2.502-0.432 0.903-0.777 1.745-1.102 2.723-1.651 4.985 0.471 10.438-2.031 12.894-0.348 0.341-0.845 0.572-1.456 0.51-0.582-0.058-0.897-0.279-1.293-0.507-0.318-0.182-0.65-0.354-1.030-0.494-0.383-0.322-0.754-0.666-1.105-1.024l-0.003-0.003zM7.758 2.959c-0.539 0.5-1.020 1.046-1.475 1.68-2.98 4.146-1.742 9.775-0.946 14.779 0.309 1.947 0.283 3.497-0.309 4.969-0.172 0.432-0.478 1.014-0.786 1.602-1.778-2.090-3.022-4.679-3.48-7.588-0.663-4.208 0.445-8.286 2.765-11.478 1.137-1.563 2.57-2.915 4.228-3.965h0.003zM14.663 31.37c1.219 0.104 2.473 0.065 3.737-0.133l0.11-0.020c-0.091-0.062-0.179-0.13-0.26-0.208-0.227-0.27-0.465-1.053-0.533-1.495-0.172-1.089-0.201-1.661-0.039-2.785 0.049-0.341 0.305-1.752 0.484-1.911 0.526-0.244 3.084 1.131 4.419 0.923 0.585-0.091 0.936-0.175 1.183-0.793 0.263-0.656-0.010-1.397 0.513-1.722 0.312-0.195 1.28-0.023 0.764-1.388 1.225-0.188 0.543-1.3 0.494-1.599-0.175-1.108 0.084-0.663 1.027-1.147 0.439-0.224 0.868-0.474 0.699-1.089l-0.718-1.209c-0.471-0.741-0.565-0.907-0.689-1.687-0.136-0.858 0.692-1.787 1.102-3.844 0.426-2.125-0.962-5.726-1.667-7.36-0.383 0.731-1.066 1.856-1.144 1.992-1.31 2.268-2.47 3.263-3.883 5.092-0.37 0.481-0.429 0.422-0.78 0.929l-1.222 1.573-0.864 1.368c-0.533 0.9-1.014 1.93-1.371 2.96-0.354 1.017-0.643 2.291-0.777 3.389l-0.214 1.534c-0.127-0.812-0.159-2.57-0.13-3.415 0.010-0.325 0.032-1.355 0.111-1.579l0.276-1.462c0.461-1.969 1.225-3.516 2.106-5.118 1.137-2.070 2.207-3.776 3.246-5.956 0.205-0.426 0.37-0.832 0.552-1.261 0.201-0.484 0.526-1.482 0.692-2.206-0.351-0.146-0.708-0.279-1.069-0.396-0.146 0.985-0.767 2.408-1.134 3.165-0.136 0.279-0.292 0.536-0.419 0.829l-0.838 1.654c-0.075 0.149-0.13 0.283-0.201 0.416-0.081 0.146-0.133 0.253-0.201 0.387-0.692 1.375-1.781 3.688-2.356 5.073-0.793 1.914-1.079 3.763-1.16 5.908-0.039 1.066 0.104 3.597 0.253 4.666 0.159 1.147 0.315 3.614 0.296 4.741-0.020 1.095-0.091 2.161-0.393 3.191v-0.006zM13.546 0.193c4.351-0.676 8.569 0.471 11.871 2.876 3.458 2.515 5.729 6.252 6.392 10.473 0.676 4.354-0.471 8.569-2.876 11.874-2.411 3.308-6.083 5.7-10.447 6.385s-8.592-0.461-11.9-2.869c-3.308-2.408-5.7-6.083-6.389-10.447-0.686-4.364 0.461-8.592 2.869-11.9 2.411-3.308 6.083-5.7 10.447-6.385h0.029v-0.003l0.003-0.003z"></path>
<path fill="#005ca9" style="fill: var(--color2, #005ca9)" d="M14.796 14.771c0.604 0 1.095 0.536 1.095 1.199s-0.491 1.199-1.095 1.199c-0.604 0-1.095-0.536-1.095-1.199s0.491-1.199 1.095-1.199z"></path>
</symbol>
<symbol id="menu" viewBox="0 0 24 24">
<path d="M4 6H20M4 12H20M4 18H20" stroke="#1F1F1F" stroke-width="2" stroke-linecap="round" stroke-linejoin="round"/>
</symbol>
<symbol id="telegram" viewBox="0 0 32 32">
<path d="M16 2.667c-7.36 0-13.333 5.973-13.333 13.333s5.973 13.333 13.333 13.333c7.36 0 13.333-5.973 13.333-13.333s-5.973-13.333-13.333-13.333zM22.186 11.734c-0.2 2.107-1.067 7.227-1.507 9.587-0.187 1-0.56 1.333-0.907 1.373-0.773 0.067-1.36-0.507-2.107-1-1.173-0.773-1.84-1.253-2.973-2-1.32-0.867-0.467-1.347 0.293-2.12 0.2-0.2 3.613-3.307 3.68-3.587 0.009-0.042 0.008-0.086-0.004-0.128s-0.033-0.080-0.063-0.112c-0.080-0.067-0.187-0.040-0.28-0.027-0.12 0.027-1.987 1.267-5.627 3.72-0.533 0.36-1.013 0.547-1.44 0.533-0.48-0.013-1.387-0.267-2.067-0.493-0.84-0.267-1.493-0.413-1.44-0.88 0.027-0.24 0.36-0.48 0.987-0.733 3.893-1.693 6.48-2.813 7.773-3.347 3.707-1.547 4.467-1.813 4.973-1.813 0.107 0 0.36 0.027 0.52 0.16 0.133 0.107 0.173 0.253 0.187 0.36-0.013 0.080 0.013 0.32 0 0.507z"></path>
</symbol>
<symbol id="vector" viewBox="0 0 30 32">
<path fill="#ffed00" style="fill: var(--color1, #ffed00)" d="M15.352 0.248c3.51 0.77 4.463 4.886 7.011 7.312 2.551 2.428 6.807 3.349 7.689 6.68 1.026 3.876-0.363 8.046-2.961 11.185-2.922 3.53-7.021 6.543-11.739 6.575-4.74 0.032-8.905-2.921-11.905-6.417-2.711-3.16-3.462-7.263-3.333-11.343 0.124-3.931 1.057-7.95 4.029-10.679 2.928-2.689 7.246-4.183 11.209-3.313z"></path>
</symbol>
<symbol id="prijects" viewBox="0 0 32 32">
<path d="M10.183 28.507c-1.147-0.013-3.901 0.32-4.706-0.483-0.075-0.073-0.175-0.112-0.278-0.11-1.138 0.017-2.654 0.19-3.585-0.367-1.968-1.18-1.186-5.363-1.222-7.25-0.091-5.096-0.099-10.191-0.026-15.287 0.036-2.433 1.28-3.17 3.478-3.107 0.032-0 0.063-0.011 0.087-0.032s0.042-0.049 0.048-0.081l0.246-1.307c0.011-0.058 0.041-0.11 0.086-0.148s0.101-0.057 0.16-0.056l2.379 0.053c0.144 0.002 0.225 0.077 0.242 0.223l0.142 1.167c0.007 0.048 0.029 0.092 0.063 0.125s0.078 0.052 0.124 0.055c0.5 0.027 0.976 0.030 1.429 0.010 0.216-0.009 0.363-0.072 0.443-0.19 0.112-0.16 0.126-0.369 0.042-0.627-0.029-0.089-0.037-0.183-0.023-0.276s0.048-0.18 0.101-0.256c0.053-0.076 0.123-0.138 0.204-0.18s0.17-0.065 0.261-0.065l2.179 0.003c0.164 0.002 0.261 0.086 0.291 0.25l0.226 1.2c0.015 0.078 0.061 0.118 0.139 0.12l1.658 0.027c0.048-0 0.094-0.018 0.13-0.050s0.060-0.076 0.067-0.124l0.178-1.203c0.019-0.14 0.098-0.21 0.236-0.21h2.376c0.162 0 0.255 0.083 0.281 0.25l0.187 1.173c0.007 0.045 0.029 0.085 0.063 0.114s0.077 0.045 0.121 0.046h1.629c0.043-0 0.085-0.016 0.118-0.045s0.054-0.068 0.060-0.112l0.184-1.173c0.028-0.169 0.124-0.253 0.288-0.253h2.331c0.067-0 0.131 0.024 0.182 0.069s0.085 0.106 0.096 0.174l0.188 1.183c0.007 0.044 0.029 0.083 0.061 0.112s0.074 0.045 0.117 0.045h1.668c0.035 0 0.069-0.013 0.096-0.037s0.044-0.057 0.050-0.093l0.204-1.267c0.010-0.061 0.040-0.116 0.086-0.155s0.103-0.061 0.163-0.061l2.356-0.013c0.153 0 0.241 0.078 0.265 0.233l0.188 1.217c0.015 0.104 0.073 0.161 0.175 0.17 0.485 0.050 1.031-0.053 1.445 0.053 1.648 0.427 2.030 1.647 2.033 3.347 0.009 6.42 0.010 12.84 0.003 19.26-0.003 3.557-2.004 3.353-4.739 3.347-0.103 0-0.204 0.033-0.288 0.093-1.148 0.833-3.439 0.487-4.826 0.493-0.103 0-0.155 0.052-0.155 0.157l-0.026 2.387c-0.002 0.169-0.068 0.331-0.183 0.451s-0.271 0.189-0.434 0.192c-3.245 0.076-6.563 0.090-9.952 0.043-1.503-0.020-0.899-2.063-1.018-3.047-0.013-0.118-0.076-0.178-0.191-0.18zM6.147 1.325c0-0.065-0.012-0.129-0.036-0.189s-0.059-0.114-0.103-0.16c-0.044-0.046-0.097-0.083-0.155-0.108s-0.12-0.038-0.183-0.038l-0.090-0c-0.063-0-0.125 0.012-0.183 0.037s-0.111 0.061-0.156 0.106-0.080 0.1-0.104 0.16c-0.024 0.060-0.037 0.124-0.037 0.189l-0.007 2.187c-0 0.065 0.012 0.129 0.036 0.189s0.059 0.114 0.103 0.16c0.044 0.046 0.097 0.083 0.155 0.107s0.12 0.038 0.183 0.038l0.090 0c0.063 0 0.125-0.012 0.183-0.037s0.111-0.061 0.156-0.106c0.045-0.046 0.080-0.1 0.104-0.16s0.037-0.124 0.037-0.189l0.007-2.187zM11.462 1.328c0-0.065-0.012-0.13-0.036-0.19s-0.059-0.115-0.104-0.161c-0.045-0.046-0.098-0.083-0.156-0.108s-0.121-0.038-0.184-0.038l-0.078-0c-0.063-0-0.126 0.013-0.184 0.037s-0.112 0.061-0.156 0.107-0.080 0.101-0.105 0.161c-0.024 0.060-0.037 0.125-0.037 0.19l-0.004 2.18c-0 0.065 0.012 0.13 0.036 0.19s0.059 0.115 0.104 0.161c0.045 0.046 0.098 0.083 0.156 0.108s0.121 0.038 0.184 0.038l0.078 0c0.063 0 0.126-0.013 0.184-0.037s0.112-0.061 0.156-0.107 0.080-0.101 0.105-0.161c0.024-0.060 0.037-0.125 0.037-0.19l0.004-2.18zM16.716 1.333c0-0.136-0.052-0.267-0.146-0.363s-0.22-0.15-0.352-0.15h-0.045c-0.132 0-0.259 0.054-0.352 0.15s-0.146 0.227-0.146 0.363v2.213c0 0.136 0.052 0.267 0.146 0.363s0.22 0.15 0.352 0.15h0.045c0.132 0 0.259-0.054 0.352-0.15s0.146-0.227 0.146-0.363v-2.213zM21.972 1.34c0-0.136-0.052-0.267-0.146-0.363s-0.22-0.15-0.352-0.15h-0.045c-0.132 0-0.259 0.054-0.352 0.15s-0.146 0.227-0.146 0.363v2.207c0 0.136 0.052 0.267 0.146 0.363s0.22 0.15 0.352 0.15h0.045c0.132 0 0.259-0.054 0.352-0.15s0.146-0.227 0.146-0.363v-2.207zM27.23 1.338c-0-0.068-0.013-0.135-0.039-0.198s-0.063-0.119-0.109-0.167-0.102-0.086-0.163-0.111c-0.061-0.026-0.126-0.039-0.192-0.039l-0.045 0c-0.133 0-0.26 0.055-0.354 0.153s-0.146 0.229-0.145 0.366l0.007 2.207c0 0.068 0.013 0.135 0.039 0.198s0.063 0.119 0.109 0.167c0.047 0.048 0.102 0.086 0.163 0.111s0.126 0.039 0.192 0.039l0.045-0c0.133-0 0.26-0.055 0.354-0.153s0.146-0.229 0.145-0.366l-0.008-2.207zM28.268 3.26c0.187 2.39-3.194 2.573-3.135-0.12 0-0.021-0.003-0.042-0.011-0.062s-0.019-0.038-0.033-0.053-0.032-0.027-0.051-0.036c-0.019-0.008-0.039-0.013-0.060-0.013l-1.752-0.007c-0.024 0-0.049 0.005-0.071 0.015s-0.043 0.024-0.060 0.041c-0.017 0.018-0.031 0.039-0.040 0.062s-0.014 0.048-0.013 0.072c0.049 2.773-3.378 2.42-3.161 0.033 0.003-0.031-0.001-0.062-0.011-0.092s-0.026-0.057-0.047-0.079c-0.021-0.023-0.046-0.041-0.074-0.052s-0.058-0.017-0.088-0.016l-1.736 0.067c-0.097 0.004-0.144 0.056-0.142 0.153 0.045 2.66-3.4 2.47-3.142 0.107 0.006-0.052-0-0.105-0.018-0.154s-0.047-0.093-0.085-0.128c-0.038-0.035-0.084-0.060-0.133-0.073s-0.101-0.013-0.151-0.001c-0.437 0.109-0.881 0.12-1.332 0.033-0.106-0.022-0.208-0.010-0.307 0.037-0.175 0.084-0.227 0.234-0.158 0.45 0.034 0.105 0.038 0.217 0.013 0.323-0.456 2.023-3.171 1.723-3.135-0.58 0-0.026-0.004-0.052-0.013-0.076s-0.023-0.046-0.040-0.065c-0.017-0.019-0.038-0.033-0.061-0.043s-0.048-0.015-0.072-0.015l-1.671-0.020c-0.034-0-0.067 0.006-0.099 0.019s-0.059 0.033-0.083 0.058-0.042 0.055-0.054 0.087c-0.012 0.033-0.018 0.067-0.016 0.102 0.071 2.447-3.142 2.58-3.194-0.020-0.002-0.102-0.051-0.166-0.145-0.19-2.379-0.613-2.492 1.267-2.421 3.013 0.004 0.142 0.077 0.213 0.217 0.213h29.010c0.103 0 0.167-0.052 0.191-0.157 0.414-1.84-0.275-3.613-2.46-3.053-0.112 0.029-0.163 0.102-0.152 0.22zM19.318 19.993c2.148-1.753 4.325-1.717 6.529 0.11 1.733 1.433 1.396 4.527 1.38 6.533-0 0.033 0.006 0.066 0.018 0.096s0.031 0.058 0.054 0.081c0.023 0.023 0.050 0.041 0.080 0.052s0.062 0.016 0.094 0.015c1.021-0.060 3.465 0.273 3.468-1.467 0.015-5.962 0.015-11.934 0-17.917 0-0.109-0.053-0.163-0.158-0.163h-29.169c-0.108 0-0.162 0.056-0.162 0.167v17.99c-0 0.352 0.135 0.69 0.375 0.94s0.567 0.393 0.908 0.396l2.182 0.023c0.103 0.002 0.155-0.050 0.155-0.157 0.023-2.363-0.307-4.66 1.413-6.5 2.082-2.227 5.324-1.837 7.218 0.543 0.073 0.093 0.165 0.119 0.275 0.077 1.463-0.591 2.93-0.592 4.399-0.003 0.044 0.018 0.091 0.023 0.137 0.015s0.089-0.030 0.124-0.062c0.249-0.227 0.472-0.6 0.679-0.77zM12.672 21.117c-1.794-1.837-4.609-1.817-5.951 0.5-0.827 1.43-0.624 3.8-0.569 5.49 0.003 0.083 0.037 0.162 0.095 0.22s0.135 0.090 0.215 0.090h3.643c0.046 0 0.091-0.009 0.133-0.029s0.080-0.047 0.111-0.082c0.031-0.035 0.055-0.077 0.069-0.122s0.020-0.093 0.016-0.141c-0.2-2.233 0.537-4.040 2.211-5.42 0.036-0.030 0.066-0.068 0.087-0.11s0.033-0.089 0.036-0.137c0.002-0.048-0.005-0.096-0.022-0.14s-0.042-0.085-0.075-0.119zM24.664 20.563c-1.896-1.262-3.585-1.017-5.065 0.737-0.069 0.080-0.063 0.153 0.019 0.22 1.758 1.433 2.538 3.327 2.34 5.68-0.002 0.028 0.001 0.055 0.010 0.082s0.022 0.050 0.040 0.071c0.018 0.020 0.040 0.037 0.064 0.048s0.050 0.017 0.077 0.017h3.779c0.065 0 0.127-0.026 0.173-0.073s0.072-0.11 0.073-0.177c0.026-2.16 0.527-5.25-1.509-6.603zM11.874 31.167h8.643c0.109 0 0.213-0.045 0.29-0.124s0.12-0.187 0.12-0.299v-4.43c0-1.278-0.485-2.504-1.347-3.408s-2.032-1.412-3.252-1.412h-0.265c-1.22 0-2.39 0.508-3.252 1.412s-1.347 2.13-1.347 3.408v4.43c0 0.112 0.043 0.22 0.12 0.299s0.181 0.124 0.29 0.124z"></path>
<path d="M12.475 14.913c0 0.717-0.276 1.405-0.768 1.912s-1.158 0.792-1.854 0.792-1.362-0.285-1.854-0.792c-0.492-0.507-0.768-1.195-0.768-1.912s0.276-1.405 0.768-1.912 1.158-0.792 1.854-0.792c0.695 0 1.362 0.285 1.854 0.792s0.768 1.195 0.768 1.912zM11.421 14.907c0-0.428-0.165-0.838-0.458-1.141s-0.691-0.473-1.106-0.473-0.813 0.17-1.106 0.473c-0.293 0.303-0.458 0.713-0.458 1.141s0.165 0.838 0.458 1.141c0.293 0.303 0.691 0.473 1.106 0.473 0.205 0 0.409-0.042 0.599-0.123s0.362-0.2 0.508-0.35c0.145-0.15 0.26-0.328 0.339-0.523s0.119-0.406 0.119-0.617z"></path>
<path d="M25.139 14.914c0 0.718-0.277 1.406-0.769 1.914s-1.16 0.793-1.856 0.793c-0.696 0-1.364-0.285-1.856-0.793s-0.769-1.196-0.769-1.914c0-0.355 0.068-0.707 0.2-1.036s0.325-0.627 0.569-0.878c0.244-0.251 0.533-0.451 0.852-0.587s0.66-0.206 1.004-0.206 0.686 0.070 1.004 0.206c0.318 0.136 0.608 0.335 0.852 0.587s0.437 0.55 0.569 0.878c0.132 0.328 0.2 0.68 0.2 1.036zM24.079 14.92c0-0.428-0.165-0.838-0.458-1.141s-0.691-0.473-1.106-0.473c-0.415 0-0.813 0.17-1.106 0.473s-0.458 0.713-0.458 1.141c0 0.428 0.165 0.838 0.458 1.141s0.691 0.473 1.106 0.473c0.415 0 0.813-0.17 1.106-0.473s0.458-0.713 0.458-1.141z"></path>
<path d="M18.801 16.003c0 0.717-0.276 1.405-0.768 1.912s-1.158 0.792-1.854 0.792c-0.695 0-1.362-0.285-1.854-0.792s-0.768-1.195-0.768-1.912c0-0.717 0.276-1.405 0.768-1.912s1.158-0.792 1.854-0.792c0.695 0 1.362 0.285 1.854 0.792s0.768 1.195 0.768 1.912zM17.75 16.003c0-0.429-0.165-0.84-0.459-1.143s-0.693-0.474-1.108-0.474-0.815 0.17-1.108 0.474c-0.294 0.303-0.459 0.714-0.459 1.143s0.165 0.84 0.459 1.143c0.294 0.303 0.693 0.474 1.108 0.474s0.814-0.17 1.108-0.474c0.294-0.303 0.459-0.714 0.459-1.143z"></path>
</symbol>
<symbol id="group" viewBox="0 0 32 32">
<path d="M20.958 19.158c-0.424-1.765-0.444-3.352-0.142-5.269 0.358-2.288 1.15-4.443 0.185-6.709-0.026-0.060-0.039-0.126-0.039-0.192s0.013-0.132 0.039-0.193c0.026-0.061 0.063-0.115 0.11-0.16s0.102-0.079 0.162-0.1c1.059-0.373 1.151 3.259 1.097 3.784-0.046 0.46-0.207 1.397-0.483 2.811-0.532 2.718-0.38 5.319 0.455 7.803 0.371 1.107 0.612 1.792 0.62 2.989 0.007 1.406 0.007 2.768 0 4.085-0.002 0.316-0.123 0.619-0.337 0.841s-0.503 0.348-0.804 0.348l-11.617 0.008c-0.304 0-0.595-0.127-0.81-0.352s-0.335-0.531-0.335-0.85c0-1.447 0-2.958 0-4.533-0.003-1.003 0.571-2.304 0.767-3.035 0.625-2.344 0.792-4.36 0.381-6.88-0.234-1.429-0.66-3.072-0.564-4.403 0.427-5.939 6.905-8.317 10.959-4.267 0.264 0.263 0.282 0.521 0.053 0.773-0.041 0.044-0.090 0.079-0.144 0.103s-0.112 0.036-0.171 0.036c-0.059-0-0.117-0.013-0.17-0.037s-0.102-0.060-0.143-0.105c-3.020-3.317-8.434-1.877-9.382 2.744-0.32 1.571 0.183 3.459 0.508 5.139 0.359 1.858 0.328 3.748-0.094 5.669-0.030 0.135 0.008 0.164 0.117 0.085 1.044-0.739 1.925-1.024 3.253-1.021 2.121 0.003 4.528-0.419 6.357 1.005 0.018 0.014 0.040 0.022 0.063 0.022s0.045-0.006 0.063-0.019c0.019-0.013 0.033-0.031 0.041-0.053s0.009-0.045 0.003-0.068zM15.782 20.643l-0.549 3.149c-0.017 0.091-0.004 0.177 0.038 0.259l0.607 1.195c0.012 0.025 0.030 0.046 0.053 0.061s0.049 0.023 0.076 0.023c0.027 0 0.053-0.007 0.077-0.021s0.043-0.035 0.056-0.059c0.345-0.643 0.663-1.104 0.544-1.888-0.142-0.933-0.299-1.874-0.47-2.821-0.008-0.045-0.004-0.092 0.011-0.135s0.041-0.081 0.075-0.11l0.909-0.784c0.020-0.017 0.035-0.040 0.042-0.065s0.006-0.054-0.002-0.079c-0.009-0.026-0.025-0.048-0.046-0.064s-0.047-0.025-0.073-0.026l-2.202-0.027c-0.030 0-0.059 0.010-0.084 0.028s-0.044 0.044-0.054 0.073c-0.011 0.029-0.012 0.061-0.005 0.091s0.024 0.057 0.046 0.077l0.825 0.749c0.050 0.046 0.088 0.104 0.11 0.17s0.027 0.137 0.014 0.206zM14.586 22.187l0.206-1.227c0.017-0.092-0.011-0.167-0.084-0.224-0.439-0.34-0.739-0.78-0.902-1.323-0.037-0.119-0.113-0.164-0.226-0.133l-0.538 0.139c-0.019 0.005-0.037 0.014-0.052 0.027s-0.027 0.030-0.035 0.049c-0.008 0.019-0.012 0.040-0.011 0.061s0.006 0.042 0.015 0.060l1.351 2.619c0.135 0.26 0.228 0.244 0.277-0.048zM18.5 19.286c-0.171-0.048-0.283 0.017-0.335 0.195-0.154 0.519-0.431 0.94-0.83 1.261-0.037 0.029-0.065 0.068-0.081 0.113s-0.021 0.093-0.013 0.141l0.221 1.325c0.003 0.020 0.013 0.039 0.027 0.053s0.032 0.024 0.051 0.028c0.019 0.004 0.038 0.001 0.056-0.008s0.031-0.023 0.040-0.041l1.417-2.701c0.064-0.121 0.033-0.199-0.094-0.235l-0.457-0.131zM10.032 28.059c0.001 0.037 0.016 0.073 0.042 0.098s0.060 0.040 0.095 0.040l11.589 0.003c0.066 0 0.128-0.027 0.175-0.076s0.073-0.114 0.074-0.183c0.028-2.765 0.655-6.24-1.907-8.003-0.076-0.053-0.136-0.038-0.18 0.045-1.138 2.19-2.264 4.386-3.378 6.587-0.164 0.324-0.4 0.432-0.709 0.325-0.109-0.038-0.201-0.117-0.257-0.221l-3.456-6.627c-0.075-0.144-0.175-0.166-0.302-0.067-1.445 1.152-1.788 2.307-1.831 4.285-0.027 1.189-0.012 2.453 0.046 3.792z"></path>
<path d="M7.703 6.458c0.549 0.272 1.090 0.549 1.28 0.992 0.040 0.093 0.049 0.197 0.026 0.296s-0.077 0.187-0.154 0.25-0.171 0.096-0.267 0.095c-0.097-0.001-0.19-0.036-0.265-0.1-1.652-1.381-3.357-1.444-5.112-0.189-0.056 0.040-0.12 0.066-0.187 0.076s-0.135 0.004-0.199-0.017c-0.444-0.152-0.399-0.619-0.071-0.875 1.556-1.218 3.206-1.394 4.95-0.528z"></path>
<path d="M11.213 11.635c-0.074-2.264-0.185-4.061 1.234-5.581 0.042-0.046 0.094-0.080 0.152-0.101s0.119-0.026 0.179-0.017 0.118 0.034 0.167 0.071c0.050 0.037 0.091 0.086 0.119 0.143 1.581 3.164 4.025 5.214 7.329 6.149 0.121 0.034 0.226 0.113 0.294 0.223s0.097 0.242 0.079 0.372c-0.536 3.795-4.389 5.685-7.497 3.552-1.618-1.112-1.991-2.717-2.057-4.811zM19.652 13.085c-2.923-0.933-5.359-2.867-6.959-5.581-0.009-0.015-0.021-0.028-0.036-0.036s-0.032-0.011-0.049-0.010c-0.017 0.002-0.034 0.008-0.048 0.019s-0.025 0.026-0.032 0.043c-0.556 1.448-0.645 4.331-0.244 5.811 1.105 4.072 6.281 3.979 7.484-0.011 0.007-0.023 0.010-0.048 0.008-0.073s-0.009-0.048-0.020-0.070c-0.011-0.022-0.026-0.041-0.044-0.057s-0.039-0.028-0.061-0.035z"></path>
<path d="M28.92 15.92c-2.43 1.885-5.857 0.443-5.976-2.84-0.061-1.611-0.241-3.173 0.65-4.456 1.173-1.688 3.406-1.963 5.054-0.931 1.202 0.754 1.738 2.020 1.608 3.8-0.003 0.041 0.007 0.082 0.027 0.116s0.051 0.061 0.087 0.076c2.613 1.048 1.597 4.733-1.227 4.181-0.081-0.016-0.156 0.002-0.224 0.053zM24.922 9.464c0.081 0.018 0.156 0.059 0.217 0.118s0.106 0.133 0.131 0.216c0.483 1.629 2.436 2.387 3.916 2.587 0.081 0.011 0.128-0.028 0.14-0.115 0.31-2.501-0.739-4.781-3.528-4.083-1.304 0.327-1.948 1.25-1.933 2.768 0 0.091 0.043 0.142 0.13 0.155l0.198 0.029c0.102 0.014 0.153-0.032 0.155-0.139 0.013-0.445-0.193-1.712 0.574-1.536zM23.866 12.155c-0.467 3.821 4.208 5.189 5.387 1.467 0.058-0.178-0.003-0.277-0.18-0.299-1.332-0.156-2.536-0.651-3.611-1.483-0.078-0.060-0.157-0.061-0.236-0.003-0.345 0.26-0.742 0.326-1.191 0.2-0.018-0.005-0.037-0.007-0.056-0.004s-0.037 0.011-0.053 0.022c-0.016 0.011-0.029 0.026-0.040 0.043s-0.017 0.036-0.019 0.056zM30.271 12.867c-0.061 0.821-0.198 1.245-0.452 1.976-0.039 0.108-0.003 0.156 0.107 0.141 1.054-0.149 1.404-1.533 0.503-2.195-0.096-0.071-0.149-0.045-0.157 0.077z"></path>
<path d="M2.192 10.032c0.027-0.087 0.096-0.136 0.208-0.147 2.098-0.187 1.516 1.832 3.19 1.843 1.131 0.005 2.231 0.007 3.299 0.005 0.095-0.001 0.187 0.035 0.259 0.099s0.12 0.154 0.135 0.253c0.174 1.125-0.037 2.148-0.635 3.067-0.017 0.026-0.027 0.056-0.027 0.088s0.009 0.062 0.026 0.088c0.017 0.026 0.042 0.045 0.070 0.056s0.059 0.011 0.088 0.003c0.306-0.085 0.498 0.045 0.574 0.392 0.014 0.066 0.015 0.134 0.001 0.2s-0.042 0.127-0.082 0.18c-0.040 0.053-0.090 0.096-0.148 0.126s-0.121 0.046-0.185 0.046c-0.681 0.011-1.186-0.064-1.884 0.187-0.889 0.32-1.78 0.335-2.674 0.045-1.211-0.392-2.606-0.232-3.845-0.227-0.076 0-0.151-0.021-0.216-0.062s-0.119-0.1-0.155-0.17c-0.036-0.070-0.054-0.149-0.050-0.229s0.027-0.157 0.069-0.224c1.349-2.157 0.020-4.76 1.194-6.987 0.047-0.088 0.122-0.155 0.211-0.191s0.189-0.036 0.279-0.001c0.151 0.059 0.246 0.152 0.287 0.28 0.024 0.080 0.012 0.203-0.036 0.368-0.577 1.981-0.030 3.936-0.673 6.067-0.007 0.021-0.008 0.043-0.005 0.064s0.012 0.042 0.025 0.059c0.013 0.018 0.029 0.032 0.048 0.041s0.040 0.014 0.061 0.014l0.963-0.032c0.018-0 0.036-0.005 0.052-0.015s0.029-0.024 0.038-0.041c0.009-0.017 0.014-0.036 0.014-0.056s-0.004-0.039-0.013-0.056c-0.706-1.379-0.767-2.813-0.65-4.179 0.029-0.327 0.091-0.645 0.188-0.955zM4.221 15.342c1.912 1.195 4.208-0.16 4.183-2.517-0.002-0.089-0.045-0.133-0.13-0.133-1.768 0.021-4.17 0.549-4.965-1.621-0.016-0.047-0.048-0.086-0.088-0.112s-0.089-0.035-0.136-0.028c-0.047 0.008-0.090 0.032-0.122 0.069s-0.050 0.085-0.053 0.134c-0.091 1.52-0.147 3.296 1.31 4.208z"></path>
<path d="M3.211 18.736c-2.042 1.091-1.46 3.424-1.552 5.365-0.001 0.029 0.003 0.057 0.012 0.084s0.024 0.051 0.043 0.072 0.041 0.037 0.066 0.048c0.025 0.011 0.052 0.017 0.079 0.017 1.947 0.009 3.924 0.030 5.93 0.064 0.205 0.004 0.32 0.158 0.345 0.464 0.004 0.053-0.002 0.106-0.018 0.156s-0.042 0.096-0.076 0.135c-0.034 0.039-0.076 0.070-0.122 0.092s-0.096 0.033-0.147 0.033h-6.326c-0.093 0-0.185-0.019-0.271-0.057s-0.164-0.092-0.23-0.162-0.118-0.151-0.153-0.241c-0.035-0.090-0.053-0.187-0.052-0.284 0.010-1.491-0.203-3.459 0.317-4.725 1.084-2.637 3.505-2.355 5.844-2.309 0.805 0.016 2.215 0.408 2.629 1.232 0.041 0.080 0.047 0.164 0.018 0.251-0.090 0.283-0.278 0.404-0.564 0.363-0.023-0.003-0.044-0.013-0.061-0.027l-0.795-0.581c-0.103-0.076-0.176-0.052-0.218 0.072-0.371 1.084-1.045 1.876-2.022 2.373-0.078 0.039-0.164 0.058-0.25 0.057s-0.17-0.024-0.246-0.065c-0.945-0.519-1.61-1.303-1.996-2.352-0.036-0.096-0.097-0.121-0.185-0.075zM6.873 18.891c0.144-0.27 0.069-0.408-0.226-0.413l-2.171-0.037c-0.021-0-0.042 0.005-0.061 0.015s-0.035 0.025-0.047 0.044c-0.012 0.018-0.020 0.040-0.022 0.062s0.001 0.045 0.009 0.066c0.24 0.644 0.646 1.144 1.216 1.501 0.036 0.022 0.077 0.034 0.118 0.032s0.082-0.015 0.116-0.040c0.449-0.325 0.805-0.735 1.069-1.229z"></path>
<path d="M28.816 18.805c-0.351 1.111-1.030 1.906-2.039 2.384-0.048 0.024-0.1 0.036-0.154 0.038s-0.106-0.009-0.156-0.030c-1.029-0.441-1.721-1.222-2.075-2.344-0.009-0.029-0.024-0.056-0.045-0.078s-0.046-0.039-0.074-0.049c-0.028-0.010-0.058-0.013-0.087-0.008s-0.057 0.016-0.081 0.034l-0.863 0.632c-0.035 0.026-0.075 0.043-0.117 0.050s-0.086 0.005-0.127-0.008c-0.278-0.087-0.394-0.292-0.348-0.613 0.014-0.087 0.051-0.161 0.112-0.221 0.704-0.7 1.556-1.067 2.555-1.099 2.146-0.067 4.49-0.347 5.689 1.904 0.716 1.347 0.571 3.48 0.508 5.131-0.007 0.199-0.087 0.386-0.224 0.524s-0.318 0.215-0.508 0.214h-6.418c-0.117 0-0.228-0.048-0.312-0.133s-0.131-0.201-0.133-0.323c-0.008-0.315 0.282-0.485 0.569-0.483 1.973 0.021 3.946 0.020 5.92-0.005 0.091-0.002 0.14-0.051 0.145-0.147 0.107-2.315 0.396-4.32-1.521-5.459-0.019-0.011-0.041-0.018-0.063-0.020s-0.044 0.002-0.065 0.010c-0.021 0.008-0.039 0.022-0.055 0.038s-0.027 0.037-0.034 0.059zM25.357 18.456c-0.016 0-0.032 0.004-0.047 0.012s-0.027 0.020-0.036 0.034-0.015 0.030-0.016 0.047c-0.002 0.017 0.001 0.033 0.007 0.049 0.256 0.642 0.654 1.157 1.196 1.547 0.088 0.062 0.176 0.061 0.264-0.003 0.521-0.38 0.917-0.872 1.186-1.475 0.009-0.021 0.014-0.043 0.012-0.066s-0.008-0.045-0.020-0.064c-0.012-0.019-0.028-0.035-0.048-0.047s-0.041-0.017-0.063-0.017l-2.436-0.016z"></path>
</symbol>
<symbol id="ukraine" viewBox="0 0 32 32">
<path d="M11.809 0h8.692c6.458 2.035 10.993 7.842 11.488 14.875 0.060 0.865 0.014 1.684-0.139 2.459-0.010 0.050-0.031 0.097-0.061 0.137s-0.069 0.072-0.113 0.094-0.093 0.032-0.142 0.031c-0.049-0.001-0.097-0.015-0.14-0.039-0.108-0.061-0.156-0.193-0.145-0.397 0.685-12.702-11.284-20.43-22.067-15.256-0.274 0.132-0.431 0.012-0.472-0.36-0.005-0.043 0.002-0.087 0.020-0.127s0.046-0.072 0.081-0.096c0.909-0.582 1.909-1.022 3-1.32z"></path>
<path d="M5.092 5.17c-3.314 3.912-4.564 8.547-3.749 13.905 0.008 0.052 0.004 0.104-0.012 0.154s-0.042 0.095-0.078 0.131c-0.036 0.037-0.079 0.064-0.127 0.079s-0.099 0.019-0.148 0.009c-0.211-0.040-0.338-0.207-0.381-0.499-0.886-6.027 0.727-11.093 4.839-15.198 0.056-0.056 0.129-0.092 0.206-0.101s0.156 0.009 0.222 0.052 0.118 0.107 0.145 0.182c0.028 0.076 0.031 0.159 0.008 0.237-0.123 0.431-0.695 0.778-0.924 1.048z"></path>
<path d="M14.524 9.694c-0.026 0.788 0.078 2.452-1.219 2.25-1.795-0.278-3.42-0.387-4.874-0.327-1.238 0.054-2.269 0.627-3.41 1.101-0.075 0.031-0.137 0.091-0.171 0.167s-0.040 0.164-0.016 0.244l0.64 2.099c0.016 0.053 0.047 0.099 0.090 0.132s0.094 0.050 0.146 0.050h7.431c0.073 0 0.145 0.026 0.202 0.074s0.098 0.114 0.115 0.189c0.039 0.171 0.004 0.303-0.103 0.397-0.069 0.061-0.179 0.091-0.33 0.091-2.47 0.009-4.94 0.010-7.412 0.003-0.131 0-0.235 0.057-0.31 0.172l-0.902 1.398c-0.032 0.050-0.050 0.108-0.053 0.168s0.008 0.119 0.034 0.172c0.368 0.741 0.231 1.329-0.414 1.765-0.050 0.033-0.092 0.077-0.124 0.128s-0.052 0.11-0.060 0.171c-0.188 1.287 2.46 1.011 3.526 0.99 0.11-0.002 0.217-0.035 0.31-0.094l3.261-2.105c0.097-0.064 0.211-0.094 0.326-0.088l2.263 0.121c0.18 0.009 0.354 0.064 0.509 0.16s0.285 0.229 0.38 0.389c1.18 1.984 1.684 2.243-0.168 4.103-0.046 0.046-0.076 0.106-0.087 0.172s-0 0.133 0.028 0.192l0.414 0.859c0.014 0.029 0.033 0.055 0.057 0.075s0.052 0.036 0.082 0.044c0.030 0.008 0.061 0.010 0.092 0.004s0.060-0.018 0.085-0.036l1.713-1.186c0.031-0.021 0.057-0.049 0.078-0.081s0.035-0.069 0.042-0.107c0.129-0.728 0.436-1.349 0.921-1.863 0.040-0.043 0.087-0.076 0.14-0.1s0.109-0.035 0.167-0.035c0.983 0.007 5.253-0.6 3.714 2.055-0.024 0.042-0.035 0.090-0.030 0.138s0.024 0.093 0.056 0.128l1.442 1.62c0.073 0.082 0.172 0.134 0.28 0.144s0.215-0.020 0.302-0.087l1.328-1.011c0.051-0.039 0.087-0.096 0.099-0.16s0.001-0.131-0.031-0.186c-0.198-0.335-0.476-0.585-0.834-0.751-0.043-0.020-0.081-0.050-0.11-0.088s-0.049-0.083-0.058-0.131l-0.495-2.712c-0.009-0.052-0.006-0.106 0.009-0.156s0.042-0.096 0.078-0.134l3.514-3.661c0.030-0.033 0.051-0.074 0.059-0.119s0.003-0.091-0.013-0.133-0.045-0.078-0.081-0.103c-0.036-0.025-0.079-0.039-0.122-0.039l-3.106-0.003c-0.060 0-0.118-0.023-0.161-0.065s-0.070-0.099-0.075-0.161l-0.019-0.283c-0.003-0.031 0.001-0.063 0.011-0.093s0.025-0.057 0.046-0.080c0.020-0.023 0.045-0.042 0.073-0.054s0.057-0.019 0.088-0.019h3.391c0.048-0 0.096-0.015 0.136-0.041s0.073-0.065 0.093-0.11c0.228-0.496 0.565-0.896 1.008-1.199 0.1-0.068 0.174-0.171 0.21-0.289s0.030-0.246-0.016-0.361l-0.931-2.334c-0.041-0.106-0.115-0.164-0.223-0.175-0.84-0.094-1.469-0.082-1.884 0.037-0.356 0.101-0.588 0.011-0.698-0.269-0.021-0.052-0.029-0.108-0.024-0.164s0.022-0.11 0.051-0.158c0.029-0.048 0.068-0.088 0.115-0.117s0.099-0.046 0.153-0.050l2.117-0.145c0.229-0.016 0.457 0.044 0.651 0.17s0.345 0.313 0.432 0.534l0.983 2.493c0.094 0.239 0.108 0.504 0.038 0.751s-0.219 0.463-0.422 0.61c-0.696 0.505-1.062 1.216-1.099 2.132-0.004 0.117 0.025 0.223 0.087 0.32l2.76 4.207c0.131 0.202 0.152 0.415 0.061 0.64-1.791 4.52-6.591 9.869-11.656 9.859-2.049-0.004-4.098-0.006-6.145-0.003-4.299 0-8.546-4.079-10.76-7.784-0.147-0.245-0.134-0.482 0.039-0.711l1.141-1.492c0.091-0.119 0.086-0.234-0.013-0.344-0.746-0.824-0.679-1.592 0.2-2.304 0.031-0.025 0.055-0.057 0.070-0.094s0.021-0.078 0.017-0.118l-0.103-1.29c-0.006-0.083 0.014-0.165 0.058-0.232l1.021-1.523c0.065-0.097 0.081-0.202 0.048-0.317-0.333-1.142-1.377-2.86 0.094-3.584 1.513-0.743 2.515-1.13 3.006-1.159 1.87-0.115 3.725 0.017 5.563 0.394 0.031 0.007 0.063 0.006 0.095-0.001s0.060-0.022 0.086-0.042c0.025-0.020 0.046-0.046 0.062-0.076s0.024-0.062 0.026-0.096l0.1-1.802c0.002-0.040 0.014-0.080 0.034-0.114s0.049-0.062 0.082-0.082l2.848-1.64c0.101-0.058 0.209-0.076 0.323-0.054 1.161 0.22 1.922 0.889 2.282 2.008 0.017 0.055 0.052 0.103 0.1 0.134s0.104 0.043 0.159 0.035c0.98-0.155 1.71 0.12 2.188 0.825 0.194 0.287 0.129 0.497-0.194 0.63-0.039 0.016-0.082 0.022-0.124 0.015s-0.082-0.024-0.115-0.052l-0.769-0.647c-0.033-0.028-0.072-0.047-0.114-0.055s-0.085-0.005-0.125 0.008c-0.575 0.186-1.089 0.091-1.542-0.286-0.094-0.079-0.16-0.186-0.188-0.307-0.185-0.808-0.674-1.302-1.467-1.482-0.121-0.027-0.234-0.010-0.339 0.051l-2.185 1.27c-0.045 0.027-0.083 0.065-0.11 0.112s-0.041 0.1-0.042 0.154zM24.955 22.996c2.192 1.277-0.052 2.678-1.044 3.308-0.202 0.128-0.439 0.179-0.673 0.146s-0.451-0.149-0.613-0.328c-0.899-0.997-2.088-1.698-1.516-3.315 0.020-0.054 0.027-0.113 0.020-0.171s-0.027-0.113-0.059-0.161c-0.032-0.048-0.075-0.087-0.125-0.115s-0.105-0.042-0.162-0.042l-2.683-0.003c-0.049-0-0.096 0.015-0.137 0.042s-0.072 0.067-0.090 0.113l-0.663 1.647c-0.054 0.13-0.137 0.236-0.249 0.317-0.873 0.606-1.988 1.095-2.541 2.061-0.812 1.417-1.614 2.8-2.405 4.15-0.121 0.202-0.070 0.331 0.152 0.387 7.551 1.9 14.765-1.741 17.93-9.213 0.021-0.048 0.029-0.101 0.025-0.154s-0.022-0.103-0.050-0.146l-2.537-3.921c-0.014-0.022-0.033-0.040-0.054-0.053s-0.046-0.022-0.071-0.024c-0.025-0.003-0.050 0.001-0.074 0.009s-0.045 0.023-0.063 0.041l-2.806 2.91c-0.088 0.090-0.12 0.198-0.094 0.323l0.381 1.903c0.012 0.059 0.036 0.115 0.071 0.165s0.079 0.091 0.13 0.122zM13.441 19.736l-2.075-0.125c-0.095-0.004-0.188 0.021-0.268 0.074-0.94 0.631-1.891 1.241-2.854 1.829-1.038 0.633-2.534 0.401-3.685 0.317-0.131-0.011-0.237 0.038-0.317 0.148l-1.076 1.472c-0.035 0.048-0.056 0.106-0.060 0.166s0.011 0.121 0.040 0.174c1.827 3.193 4.408 5.453 7.741 6.781 0.078 0.031 0.163 0.033 0.242 0.004s0.144-0.085 0.185-0.159l2.663-4.706c0.052-0.092 0.074-0.199 0.062-0.304s-0.056-0.203-0.127-0.279c-1.267-1.351-0.029-2.169 0.782-3.149 0.034-0.043 0.055-0.095 0.059-0.15s-0.007-0.11-0.034-0.157l-1.002-1.762c-0.029-0.051-0.069-0.093-0.118-0.124s-0.104-0.048-0.16-0.052z"></path>
<path d="M15.158 16.418c-0.010 1.155 1.697 1.869 2.385 0.866 0.491-0.717 0.291-2.661 0.288-3.557 0-0.344 0.131-0.519 0.394-0.525 0.050-0.002 0.101 0.007 0.148 0.026s0.091 0.047 0.128 0.083c0.037 0.036 0.067 0.080 0.088 0.128s0.032 0.101 0.034 0.154c0.045 1.411 0.343 3.904-1.083 4.669-0.912 0.492-2.085 0.293-2.693-0.589-0.653-0.95-0.42-2.944-0.411-4.18 0-0.039 0.008-0.078 0.024-0.114s0.039-0.068 0.067-0.093c0.028-0.026 0.062-0.045 0.098-0.056s0.074-0.014 0.112-0.009l0.226 0.030c0.127 0.018 0.192 0.094 0.194 0.229 0.009 0.984 0.009 1.964 0 2.941z"></path>
<path d="M21.632 16.879l-1.299 0.010c-0.045 0-0.089 0.014-0.126 0.041s-0.067 0.064-0.084 0.108l-0.533 1.341c-0.015 0.039-0.037 0.074-0.066 0.103s-0.063 0.051-0.1 0.066-0.077 0.020-0.117 0.017c-0.040-0.003-0.079-0.014-0.114-0.034-0.218-0.119-0.28-0.311-0.188-0.576 0.532-1.523 1.089-3.047 1.671-4.574 0.026-0.068 0.071-0.126 0.129-0.167s0.127-0.062 0.197-0.062c0.070 0 0.139 0.023 0.196 0.064s0.102 0.1 0.128 0.168l1.788 4.726c0.020 0.054 0.020 0.115-0 0.169s-0.059 0.1-0.11 0.127l-0.259 0.135c-0.144 0.076-0.247 0.036-0.307-0.121l-0.514-1.334c-0.023-0.061-0.063-0.113-0.115-0.149s-0.113-0.056-0.176-0.056zM20.811 15.182l-0.278 0.674c-0.014 0.034-0.020 0.072-0.016 0.109s0.015 0.073 0.035 0.104c0.020 0.031 0.046 0.056 0.077 0.074s0.066 0.026 0.102 0.026h0.575c0.030 0 0.060-0.008 0.086-0.022s0.049-0.036 0.066-0.062c0.017-0.026 0.027-0.056 0.031-0.087s-0.001-0.063-0.012-0.092l-0.372-0.97c-0.045-0.121-0.117-0.141-0.217-0.061-0.065 0.052-0.087 0.118-0.068 0.199 0.009 0.038 0.005 0.074-0.010 0.108z"></path>
</symbol>

<symbol id="icon-right" viewBox="0 0 48 32">
<path d="M37.5 17.778h-27c-0.84 0-1.5-0.782-1.5-1.778s0.66-1.778 1.5-1.778h27c0.84 0 1.5 0.782 1.5 1.778s-0.66 1.778-1.5 1.778z"></path>
<path d="M30 30.223c-0.197 0.003-0.392-0.043-0.573-0.135s-0.343-0.228-0.477-0.398c-0.6-0.711-0.6-1.813 0-2.524l9.45-11.2-9.45-11.2c-0.6-0.711-0.6-1.813 0-2.524s1.53-0.711 2.13 0l10.5 12.444c0.6 0.711 0.6 1.813 0 2.524l-10.5 12.444c-0.3 0.356-0.69 0.533-1.050 0.533l-0.030 0.036z"></path>
</symbol>

<symbol id="icon-left" viewBox="0 0 48 32" >
<path d="M37.5 17.778h-27c-0.84 0-1.5-0.782-1.5-1.778s0.66-1.778 1.5-1.778h27c0.84 0 1.5 0.782 1.5 1.778s-0.66 1.778-1.5 1.778z"></path>
<path d="M18 30.222c-0.197 0.003-0.392-0.043-0.573-0.135s-0.343-0.228-0.477-0.398l-10.5-12.444c-0.6-0.711-0.6-1.813 0-2.524l10.5-12.409c0.6-0.711 1.53-0.711 2.13 0s0.6 1.813 0 2.524l-9.45 11.2 9.45 11.2c0.6 0.711 0.6 1.813 0 2.524-0.3 0.356-0.69 0.533-1.050 0.533l-0.030-0.071z"></path>
</symbol>
</defs>
</svg>
